Patient4_TMGait_0pt7_02_right_08_GRF.mot
version=1
nRows=45
nColumns=19
inDegrees=no
endheader
time	F1x	F1y	F1z	M1x	M1y	M1z	F2x	F2y	F2z	M2x	M2y	M2z	EC1x	EC1y	EC1z	EC2x	EC2y	EC2z
8.19	24.2645	737.2178	66.2683	-253.9022	-64.8457	767.6658	-4.027	-10.3979	-29.4547	5.9138	21.4155	0.66554	-0.0592	0.0182	-0.0073	-0.0462	0.0165	0.9585
8.2016	16.6963	735.0847	68.4051	-253.3621	-67.4045	758.4755	-2.6454	-5.9551	-19.9892	4.3949	14.5976	1.488	-0.0592	0.0182	-0.0073	-0.0462	0.0165	0.9585
8.2133	10.8667	733.9325	69.989	-253.0341	-69.0361	750.3162	-1.5643	-2.1429	-11.9295	3.1114	8.8064	2.3003	-0.0592	0.0182	-0.0073	-0.0462	0.0165	0.9585
8.2249	7.0853	733.8823	70.9486	-252.9686	-69.6566	743.6155	-0.8088	0.79401	-5.7566	2.1393	4.3762	2.9944	-0.0592	0.0182	-0.0073	-0.0462	0.0165	0.9585
8.2366	5.186	734.7932	71.3392	-253.1432	-69.3806	738.3091	-0.35014	2.8841	-1.48	1.484	1.3094	3.5799	-0.0592	0.0182	-0.0073	-0.0462	0.0165	0.9585
8.2482	4.8048	736.2965	71.2832	-253.4625	-68.4137	734.0319	-0.11827	4.2256	1.1757	1.0927	-0.59919	4.0329	-0.0592	0.0182	-0.0073	-0.0462	0.0165	0.9585
8.2599	5.5087	737.88	70.9193	-253.7792	-66.9812	730.2081	-0.053501	4.957	2.5754	0.89051	-1.6059	4.3343	-0.0592	0.0182	-0.0073	-0.0462	0.0165	0.9585
8.2715	6.8906	738.9347	70.351	-253.9093	-65.2617	726.1293	-0.084589	5.2108	3.0948	0.79902	-1.9783	4.45	-0.0592	0.0182	-0.0073	-0.0462	0.0165	0.9585
8.2831	8.6992	738.9097	69.6641	-253.6785	-63.3733	721.1529	-0.17679	5.0346	3.058	0.72867	-1.9414	4.2924	-0.0592	0.0182	-0.0073	-0.0462	0.0165	0.9585
8.2948	10.8046	737.4012	68.8995	-252.9537	-61.3643	714.7633	-0.27581	4.4506	2.7178	0.60156	-1.6763	3.7722	-0.0592	0.0182	-0.0073	-0.0462	0.0165	0.9585
8.3064	13.174	734.2042	68.1047	-251.6647	-59.2695	706.6708	-0.36244	3.4162	2.2479	0.34326	-1.3058	2.7666	-0.0592	0.0182	-0.0073	-0.0462	0.0165	0.9585
8.3181	15.9004	729.4085	67.3193	-249.8335	-57.0892	696.9139	-0.40686	1.8576	1.7626	-0.10875	-0.92178	1.1366	-0.0592	0.0182	-0.0073	-0.0462	0.0165	0.9585
8.3297	19.0666	723.3676	66.6219	-247.5683	-54.8575	685.8129	-0.38923	-0.25942	1.3287	-0.78715	-0.58698	-1.1836	-0.0592	0.0182	-0.0073	-0.0462	0.0165	0.9585
8.3414	22.7978	716.7246	66.1171	-245.0718	-52.6204	673.9733	-0.29307	-2.9013	0.99062	-1.6835	-0.35649	-4.1692	-0.0592	0.0182	-0.0073	-0.0462	0.0165	0.9585
8.353	27.2025	710.353	65.9325	-242.6216	-50.4483	662.2369	-0.10363	-5.8718	0.78341	-2.721	-0.28027	-7.5891	-0.0592	0.0182	-0.0073	-0.0462	0.0165	0.9585
8.3646	32.3232	705.2365	66.1956	-240.5352	-48.4273	651.5255	0.1934	-8.718	0.74288	-3.7235	-0.4097	-10.9089	-0.0592	0.0182	-0.0073	-0.0462	0.0165	0.9585
8.3763	38.1178	702.3235	66.9979	-239.1225	-46.6355	642.7596	0.58814	-10.6266	0.92517	-4.3773	-0.81109	-13.1667	-0.0592	0.0182	-0.0073	-0.0462	0.0165	0.9585
8.3879	44.4491	702.2789	68.3858	-238.6103	-45.1479	636.6064	1.0612	-10.3187	1.3926	-4.1949	-1.5526	-12.8426	-0.0592	0.0182	-0.0073	-0.0462	0.0165	0.9585
8.3996	51.0118	705.3316	70.3352	-239.0885	-44.0345	633.3574	1.5606	-5.9859	2.2125	-2.4945	-2.6889	-7.7923	-0.0592	0.0182	-0.0073	-0.0462	0.0165	0.9585
8.4112	57.4445	711.0892	72.7281	-240.4449	-43.3106	632.7735	1.9772	4.6695	3.4468	1.5847	-4.244	4.6908	-0.0592	0.0182	-0.0073	-0.0462	0.0165	0.9585
8.4229	63.2784	718.4124	75.3556	-242.3148	-42.9519	633.9802	2.1476	24.2835	5.1027	9.0195	-6.153	27.7154	-0.0592	0.0182	-0.0073	-0.0462	0.0165	0.9585
8.4345	68.0444	725.3807	77.8878	-244.0741	-42.8439	635.4036	1.8075	55.368	7.1109	20.7365	-8.2156	64.2519	-0.0592	0.0182	-0.0073	-0.0462	0.0165	0.9585
8.4461	71.3518	729.4969	79.9054	-244.9037	-42.7885	634.9871	0.61291	99.6082	9.2284	37.3388	-9.9969	116.2896	-0.0592	0.0182	-0.0073	-0.0462	0.0165	0.9585
8.4578	72.9398	728.0207	80.9078	-243.911	-42.4872	630.4194	-1.8728	156.7018	10.9865	58.6734	-10.7678	183.4751	-0.0592	0.0182	-0.0073	-0.0462	0.0165	0.9585
8.4694	72.7036	718.4313	80.412	-240.282	-41.6123	619.5657	-6.312	222.9639	11.6416	83.3113	-9.4257	261.4469	-0.0592	0.0182	-0.0073	-0.0462	0.0165	0.9585
8.4811	70.7464	698.855	78.0114	-233.4279	-39.832	600.8096	-13.2529	290.1894	10.2633	108.1396	-4.7578	340.5284	-0.0592	0.0182	-0.0073	-0.0462	0.0165	0.9585
8.4927	67.3065	668.4052	73.5671	-223.0897	-36.9919	573.3218	-21.6643	348.5557	5.8267	129.5054	3.8329	409.0022	-0.0592	0.0182	-0.0073	-0.0462	0.0165	0.9585
8.5044	62.7673	627.4227	67.2521	-209.3891	-33.1269	537.2657	-30.099	394.5611	-0.99842	146.0927	15.0294	462.5649	-0.0592	0.0182	-0.0073	-0.0462	0.0165	0.9585
8.516	57.4721	577.1298	59.5913	-192.7043	-28.5417	493.5879	-37.8393	430.356	-9.3898	158.7114	27.6543	503.5908	-0.0592	0.0182	-0.0073	-0.0462	0.0165	0.9585
8.5276	51.7392	519.2735	51.32	-173.5654	-23.7058	443.6773	-44.3926	460.1326	-18.4989	168.9622	40.5497	536.9775	-0.0592	0.0182	-0.0073	-0.0462	0.0165	0.9585
8.5393	45.7022	456.0986	42.984	-152.6685	-18.9759	389.4169	-49.4431	487.7077	-27.0679	178.3353	52.2474	567.2065	-0.0592	0.0182	-0.0073	-0.0462	0.0165	0.9585
8.5509	39.4076	390.2177	35.0316	-130.8386	-14.6776	332.9978	-52.9725	515.2656	-34.5971	187.6935	62.1331	596.9391	-0.0592	0.0182	-0.0073	-0.0462	0.0165	0.9585
8.5626	32.818	324.4165	27.6973	-108.9741	-10.9891	276.7961	-54.9792	543.5621	-40.4815	197.3554	69.5909	627.0528	-0.0592	0.0182	-0.0073	-0.0462	0.0165	0.9585
8.5742	26.0058	261.3975	21.1775	-87.9679	-8.0432	223.0853	-55.7779	572.4236	-45.1493	207.2419	75.1518	657.4698	-0.0592	0.0182	-0.0073	-0.0462	0.0165	0.9585
8.5859	19.1531	203.6402	15.5422	-68.6514	-5.8282	173.9688	-55.5634	601.3676	-48.8757	217.1491	79.2371	687.634	-0.0592	0.0182	-0.0073	-0.0462	0.0165	0.9585
8.5975	12.6775	152.9737	10.8604	-51.6567	-4.2577	130.9188	-54.7168	629.7441	-52.4799	226.7759	82.8418	716.9044	-0.0592	0.0182	-0.0073	-0.0462	0.0165	0.9585
8.6091	7.0068	110.4667	7.1718	-37.3556	-3.2172	94.8138	-53.5202	656.7625	-56.2465	235.8163	86.4073	744.3909	-0.0592	0.0182	-0.0073	-0.0462	0.0165	0.9585
8.6208	2.4773	76.174	4.4018	-25.7931	-2.5337	65.6453	-52.3343	681.7821	-60.4658	244.0155	90.3578	769.4308	-0.0592	0.0182	-0.0073	-0.0462	0.0165	0.9585
8.6324	-0.85803	49.5625	2.4244	-16.8039	-2.0866	42.9825	-51.2776	704.2872	-64.9759	251.2157	94.5747	791.4177	-0.0592	0.0182	-0.0073	-0.0462	0.0165	0.9585
8.6441	-2.9651	29.7078	1.0737	-10.0881	-1.7321	26.0382	-50.4454	724.0974	-69.4589	257.3856	98.7472	810.1796	-0.0592	0.0182	-0.0073	-0.0462	0.0165	0.9585
8.6557	-3.9371	15.5616	0.20451	-5.2971	-1.3819	13.9761	-49.6771	741.1465	-73.5946	262.5465	102.4859	825.6046	-0.0592	0.0182	-0.0073	-0.0462	0.0165	0.9585
8.6674	-3.9015	6.1184	-0.30502	-2.0938	-0.98334	5.9205	-48.9429	755.2905	-77.0919	266.6812	105.4701	837.5578	-0.0592	0.0182	-0.0073	-0.0462	0.0165	0.9585
8.679	-3.2584	0.43447	-0.55807	-0.16179	-0.58745	1.0875	-48.0846	766.2115	-79.9207	269.7006	107.6093	845.7009	-0.0592	0.0182	-0.0073	-0.0462	0.0165	0.9585
8.6906	-2.3732	-2.4419	-0.6391	0.81708	-0.24875	-1.3605	-47.0814	773.7195	-81.9683	271.5489	108.788	849.8801	-0.0592	0.0182	-0.0073	-0.0462	0.0165	0.9585
8.7023	-1.5033	-3.4054	-0.6152	1.1446	0.0027844	-2.1737	-45.8827	777.7816	-83.3441	272.228	109.1057	850.0776	-0.0592	0.0182	-0.0073	-0.0462	0.0165	0.9585
